<svg width="58" height="58" viewBox="0 0 58 58" fill="none" xmlns="http://www.w3.org/2000/svg">
<path d="M31.4844 4.83398C34.2032 4.84123 35.5831 4.85573 36.7745 4.88957L37.2433 4.90648C37.7847 4.92582 38.3187 4.94998 38.964 4.97898C41.5353 5.09982 43.2898 5.50582 44.8292 6.10273C46.4242 6.71657 47.7679 7.5479 49.1116 8.88915C50.3409 10.0968 51.2919 11.5583 51.898 13.1715C52.4949 14.7109 52.9009 16.4654 53.0217 19.0392C53.0507 19.682 53.0749 20.2161 53.0942 20.7598L53.1087 21.2287C53.145 22.4177 53.1595 23.7976 53.1643 26.5163L53.1667 28.3192V31.485C53.1726 33.2477 53.1541 35.0104 53.1112 36.7727L53.0967 37.2415C53.0773 37.7852 53.0532 38.3193 53.0242 38.9622C52.9033 41.5359 52.4925 43.288 51.898 44.8298C51.2919 46.443 50.3409 47.9045 49.1116 49.1122C47.9039 50.3415 46.4424 51.2924 44.8292 51.8986C43.2898 52.4955 41.5353 52.9015 38.964 53.0223L37.2433 53.0948L36.7745 53.1093C35.5831 53.1432 34.2032 53.1601 31.4844 53.1649L29.6816 53.1673H26.5182C24.7546 53.1735 22.9911 53.155 21.2281 53.1117L20.7592 53.0972C20.1855 53.0755 19.612 53.0505 19.0386 53.0223C16.4672 52.9015 14.7127 52.4955 13.1709 51.8986C11.5586 51.2921 10.098 50.3412 8.89099 49.1122C7.66077 47.9047 6.709 46.4432 6.10216 44.8298C5.50524 43.2904 5.09924 41.5359 4.97841 38.9622L4.90591 37.2415L4.89382 36.7727C4.84927 35.0105 4.82913 33.2477 4.83341 31.485V26.5163C4.82672 24.7536 4.84444 22.9909 4.88657 21.2287L4.90349 20.7598C4.92282 20.2161 4.94699 19.682 4.97599 19.0392C5.09682 16.4654 5.50282 14.7133 6.09974 13.1715C6.708 11.5576 7.66145 10.0961 8.89341 8.88915C10.0997 7.66039 11.5594 6.7095 13.1709 6.10273C14.7127 5.50582 16.4648 5.09982 19.0386 4.97898C19.6814 4.94998 20.2179 4.92582 20.7592 4.90648L21.2281 4.89198C22.9903 4.84905 24.753 4.83052 26.5157 4.8364L31.4844 4.83398ZM29.0001 16.9173C25.7954 16.9173 22.7219 18.1904 20.4559 20.4564C18.1898 22.7225 16.9167 25.796 16.9167 29.0007C16.9167 32.2054 18.1898 35.2788 20.4559 37.5449C22.7219 39.8109 25.7954 41.084 29.0001 41.084C32.2048 41.084 35.2782 39.8109 37.5443 37.5449C39.8103 35.2788 41.0834 32.2054 41.0834 29.0007C41.0834 25.796 39.8103 22.7225 37.5443 20.4564C35.2782 18.1904 32.2048 16.9173 29.0001 16.9173ZM29.0001 21.7507C29.9522 21.7505 30.8949 21.9379 31.7746 22.3021C32.6543 22.6663 33.4536 23.2002 34.1269 23.8733C34.8003 24.5464 35.3345 25.3455 35.6989 26.2251C36.0634 27.1046 36.2511 28.0474 36.2513 28.9994C36.2514 29.9515 36.0641 30.8943 35.6999 31.774C35.3357 32.6537 34.8018 33.453 34.1287 34.1263C33.4555 34.7997 32.6564 35.3338 31.7769 35.6983C30.8973 36.0628 29.9546 36.2505 29.0025 36.2507C27.0797 36.2507 25.2356 35.4868 23.876 34.1272C22.5163 32.7675 21.7525 30.9235 21.7525 29.0007C21.7525 27.0778 22.5163 25.2338 23.876 23.8741C25.2356 22.5145 27.0797 21.7507 29.0025 21.7507M41.69 13.2923C40.8888 13.2923 40.1205 13.6106 39.5539 14.1771C38.9874 14.7436 38.6692 15.512 38.6692 16.3132C38.6692 17.1143 38.9874 17.8827 39.5539 18.4492C40.1205 19.0157 40.8888 19.334 41.69 19.334C42.4912 19.334 43.2595 19.0157 43.826 18.4492C44.3926 17.8827 44.7108 17.1143 44.7108 16.3132C44.7108 15.512 44.3926 14.7436 43.826 14.1771C43.2595 13.6106 42.4912 13.2923 41.69 13.2923Z" fill="white"/>
</svg>
