<svg width="20" height="20" viewBox="0 0 20 20" fill="none" xmlns="http://www.w3.org/2000/svg">
<path d="M13.7961 10.7543L13.4169 11.1318C13.4169 11.1318 12.5144 12.0285 10.0519 9.58017C7.58941 7.13183 8.49191 6.23517 8.49191 6.23517L8.73024 5.99683C9.31941 5.41183 9.37524 4.47183 8.86108 3.78517L7.81108 2.38267C7.17441 1.53267 5.94524 1.42017 5.21608 2.14517L3.90774 3.44517C3.54691 3.80517 3.30524 4.27016 3.33441 4.78683C3.40941 6.10933 4.00774 8.9535 7.34441 12.2718C10.8836 15.7902 14.2044 15.9302 15.5619 15.8035C15.9919 15.7635 16.3652 15.5452 16.6661 15.2452L17.8494 14.0685C18.6494 13.2743 18.4244 11.9118 17.4011 11.356L15.8094 10.4902C15.1377 10.126 14.3211 10.2327 13.7961 10.7543Z" fill="white"/>
</svg>
