<svg width="75" height="75" viewBox="0 0 75 75" fill="none" xmlns="http://www.w3.org/2000/svg">
<path fill-rule="evenodd" clip-rule="evenodd" d="M37.5 12.5C40.1719 12.5 42.9125 12.5688 45.5687 12.6813L48.7063 12.8312L51.7094 13.0094L54.5219 13.2L57.0906 13.4C59.8787 13.6122 62.5025 14.8014 64.4999 16.7581C66.4972 18.7149 67.74 21.3137 68.0094 24.0969L68.1344 25.425L68.3688 28.2687C68.5875 31.2156 68.75 34.4281 68.75 37.5C68.75 40.5719 68.5875 43.7844 68.3688 46.7313L68.1344 49.575L68.0094 50.9031C67.7399 53.6868 66.4967 56.286 64.4987 58.2428C62.5007 60.1996 59.8761 61.3885 57.0875 61.6L54.525 61.7969L51.7125 61.9906L48.7063 62.1687L45.5687 62.3187C42.8807 62.4352 40.1906 62.4956 37.5 62.5C34.8095 62.4956 32.1193 62.4352 29.4313 62.3187L26.2937 62.1687L23.2906 61.9906L20.4781 61.7969L17.9094 61.6C15.1213 61.3878 12.4975 60.1986 10.5001 58.2419C8.50278 56.2851 7.25997 53.6863 6.99062 50.9031L6.86563 49.575L6.63125 46.7313C6.39323 43.6597 6.26606 40.5807 6.25 37.5C6.25 34.4281 6.4125 31.2156 6.63125 28.2687L6.86563 25.425L6.99062 24.0969C7.25987 21.3142 8.50222 18.7158 10.4989 16.7591C12.4957 14.8024 15.1187 13.6129 17.9062 13.4L20.4719 13.2L23.2844 13.0094L26.2906 12.8312L29.4281 12.6813C32.1172 12.5648 34.8084 12.5043 37.5 12.5ZM31.25 29.9219V45.0781C31.25 46.5219 32.8125 47.4219 34.0625 46.7031L47.1875 39.125C47.4731 38.9606 47.7103 38.7238 47.8753 38.4385C48.0402 38.1533 48.1271 37.8295 48.1271 37.5C48.1271 37.1705 48.0402 36.8467 47.8753 36.5615C47.7103 36.2762 47.4731 36.0394 47.1875 35.875L34.0625 28.3C33.7774 28.1354 33.4539 28.0487 33.1247 28.0488C32.7955 28.0489 32.472 28.1356 32.187 28.3003C31.9019 28.465 31.6652 28.7019 31.5008 28.9871C31.3363 29.2723 31.2498 29.5958 31.25 29.925V29.9219Z" fill="white"/>
</svg>
